<?xml version="1.0" encoding="utf-8"?>
<!-- Generator: Adobe Illustrator 16.0.0, SVG Export Plug-In . SVG Version: 6.00 Build 0)  -->
<!DOCTYPE svg PUBLIC "-//W3C//DTD SVG 1.1//EN" "http://www.w3.org/Graphics/SVG/1.1/DTD/svg11.dtd">
<svg version="1.1" id="Layer_2" xmlns="http://www.w3.org/2000/svg" xmlns:xlink="http://www.w3.org/1999/xlink" x="0px" y="0px"
	 width="100px" height="100px" viewBox="0 0 100 100" enable-background="new 0 0 100 100" xml:space="preserve">
<path fill="#000000" d="M91.855,23.229L76.771,8.146l-7.442,7.443l6.41,6.41l-1.414,1.414l-6.411-6.41l-5.656,5.656l3.204,3.205
	l-1.414,1.414l-3.205-3.205l-5.656,5.657l6.41,6.411l-1.414,1.414l-6.41-6.411l-5.657,5.657l3.205,3.205l-1.415,1.414l-3.204-3.205
	l-5.657,5.657l6.411,6.411l-1.415,1.415l-6.41-6.411l-5.657,5.657l3.205,3.205l-1.414,1.415l-3.205-3.205l-5.657,5.656l6.411,6.411
	l-1.414,1.414l-6.411-6.411l-5.657,5.657l3.206,3.205l-1.415,1.414l-3.205-3.205l-5.657,5.656l6.412,6.412l-1.415,1.414
	l-6.411-6.411l-3.2,3.2l15.084,15.084l25.106-25.105l23.126,23.126h18.776l0.23-18.483L67.08,48.004L91.855,23.229z M51.835,63.249
	l20.183,20.183c-0.351,1.106-0.594,2.26-0.726,3.446L49.749,65.335L51.835,63.249z M81.951,87.875h-8.725
	c0.504-8.131,7.066-14.629,15.224-15.033l-0.108,8.721C85.027,81.971,82.4,84.574,81.951,87.875z M87.177,70.929
	c-6.402,0.736-11.786,4.829-14.362,10.472L53.249,61.835l12.417-12.417L87.177,70.929z"/>
<path fill="#000000" d="M28.193,11.945l20.388,20.388l1.414-1.414l-20.699-20.7c-0.181-0.182-0.432-0.294-0.708-0.294
	C18.513,9.925,10,18.203,10,28c0,0.276,0.112,0.527,0.294,0.708L31.25,49.664l1.414-1.414L12.021,27.607
	c0.032-1.245,0.224-2.457,0.548-3.625L34.75,46.164l1.414-1.414L13.299,21.885C15.79,16.215,21.587,12.105,28.193,11.945z"/>
</svg>
