<?xml version="1.0" encoding="utf-8"?>
<!-- Generator: Adobe Illustrator 16.0.0, SVG Export Plug-In . SVG Version: 6.00 Build 0)  -->
<!DOCTYPE svg PUBLIC "-//W3C//DTD SVG 1.1//EN" "http://www.w3.org/Graphics/SVG/1.1/DTD/svg11.dtd">
<svg version="1.1" id="Layer_2" xmlns="http://www.w3.org/2000/svg" xmlns:xlink="http://www.w3.org/1999/xlink" x="0px" y="0px"
	 width="100px" height="100px" viewBox="0 0 100 100" enable-background="new 0 0 100 100" xml:space="preserve">
<g>
	<path fill="#000000" d="M46.4,12v34.4H12V12H46.4 M48.4,10H10v38.4h38.4V10L48.4,10z"/>
</g>
<g>
	<path fill="#000000" d="M46.4,53.6V88H12V53.6H46.4 M48.4,51.6H10V90h38.4V51.6L48.4,51.6z"/>
</g>
<g>
	<path fill="#000000" d="M88,53.6V88H53.6V53.6H88 M90,51.6H51.6V90H90V51.6L90,51.6z"/>
</g>
<g>
	<circle fill="#000000" cx="63.917" cy="23.833" r="6.229"/>
</g>
<g>
	<g>
		<path fill="#000000" d="M27.786,33.04h-6.768l-1.014,2.844c-0.04,0.115-0.111,0.232-0.215,0.353s-0.287,0.181-0.546,0.181h-0.722
			c-0.118,0-0.218-0.045-0.303-0.138c-0.084-0.093-0.126-0.203-0.126-0.332c0-0.071,0.024-0.17,0.078-0.299l4.777-13.491
			c0.064-0.157,0.162-0.313,0.293-0.471c0.128-0.157,0.323-0.235,0.584-0.235h1.171c0.259,0,0.454,0.078,0.585,0.235
			c0.13,0.158,0.226,0.314,0.293,0.471l4.759,13.491c0.05,0.129,0.077,0.229,0.077,0.299c0,0.129-0.043,0.239-0.127,0.332
			s-0.186,0.138-0.302,0.138h-0.722c-0.261,0-0.443-0.06-0.546-0.181c-0.104-0.121-0.176-0.238-0.214-0.353L27.786,33.04z
			 M21.701,31.116h5.402l-2.691-7.633L21.701,31.116z"/>
	</g>
	<g>
		<path fill="#000000" d="M31.784,33.618c0-0.571,0.103-1.069,0.313-1.498c0.206-0.427,0.493-0.791,0.856-1.09
			c0.363-0.299,0.791-0.542,1.278-0.727c0.487-0.185,1.005-0.328,1.551-0.427l2.75-0.493v-0.277c0-0.728-0.22-1.272-0.653-1.636
			c-0.438-0.364-0.979-0.545-1.629-0.545c-0.573,0-1.005,0.114-1.297,0.341c-0.293,0.229-0.542,0.5-0.751,0.813
			c-0.077,0.115-0.163,0.193-0.253,0.236c-0.091,0.042-0.215,0.063-0.371,0.063h-0.584c-0.143,0-0.271-0.056-0.381-0.171
			c-0.111-0.114-0.159-0.249-0.146-0.406c0.024-0.313,0.139-0.634,0.341-0.962c0.201-0.328,0.475-0.62,0.819-0.876
			c0.344-0.257,0.741-0.467,1.189-0.631c0.448-0.163,0.926-0.246,1.434-0.246c0.586,0,1.127,0.093,1.629,0.277
			c0.5,0.186,0.93,0.457,1.286,0.813c0.357,0.356,0.638,0.799,0.839,1.326s0.303,1.132,0.303,1.818v6.52
			c0,0.158-0.052,0.292-0.157,0.406c-0.103,0.115-0.228,0.171-0.37,0.171h-0.722c-0.143,0-0.267-0.056-0.37-0.171
			c-0.104-0.114-0.155-0.249-0.155-0.406v-0.876c-0.117,0.271-0.3,0.51-0.546,0.716c-0.247,0.207-0.53,0.382-0.849,0.524
			c-0.318,0.143-0.651,0.25-0.995,0.321c-0.345,0.072-0.667,0.107-0.966,0.107c-0.506,0-0.971-0.078-1.395-0.235
			c-0.422-0.157-0.779-0.366-1.071-0.631c-0.294-0.264-0.521-0.581-0.683-0.951C31.865,34.444,31.784,34.044,31.784,33.618z
			 M35.373,34.792c0.468,0,0.896-0.078,1.287-0.234c0.391-0.157,0.726-0.374,1.005-0.652c0.278-0.278,0.492-0.609,0.642-0.994
			c0.148-0.386,0.226-0.813,0.226-1.283v-0.534l-2.301,0.406c-0.819,0.141-1.47,0.371-1.951,0.684
			c-0.481,0.313-0.722,0.719-0.722,1.219c0,0.157,0.033,0.313,0.098,0.47c0.064,0.157,0.169,0.307,0.312,0.45
			c0.143,0.143,0.329,0.256,0.556,0.342C34.752,34.75,35.034,34.792,35.373,34.792z"/>
	</g>
</g>
<g>
	<polygon fill="#000000" points="22.863,67.403 17.584,67.403 17.584,74.196 22.863,74.196 29.125,79.479 29.125,62.12 	"/>
</g>
<g>
	<path fill="#000000" d="M31.893,74.895c-0.261,0-0.519-0.111-0.697-0.328c-0.318-0.385-0.264-0.954,0.121-1.271
		c0.85-0.702,1.28-1.541,1.28-2.495s-0.431-1.793-1.28-2.495c-0.385-0.317-0.439-0.887-0.121-1.271
		c0.318-0.384,0.887-0.44,1.271-0.121c1.267,1.046,1.937,2.391,1.937,3.888s-0.67,2.842-1.937,3.888
		C32.299,74.827,32.095,74.895,31.893,74.895z"/>
</g>
<g>
	<path fill="#000000" d="M34.891,76.949c-0.209,0-0.42-0.065-0.6-0.2c-0.441-0.332-0.53-0.959-0.199-1.4
		C34.734,74.493,35.5,73.01,35.5,70.8s-0.766-3.693-1.408-4.549c-0.331-0.441-0.242-1.068,0.199-1.4
		c0.441-0.329,1.069-0.243,1.4,0.199c0.825,1.1,1.809,2.989,1.809,5.75s-0.983,4.65-1.809,5.75
		C35.495,76.812,35.194,76.949,34.891,76.949z"/>
</g>
<g>
	<path fill="#000000" d="M37.891,79.115c-0.157,0-0.317-0.037-0.467-0.116c-0.488-0.258-0.675-0.863-0.416-1.352
		c0.681-1.288,1.492-3.521,1.492-6.848s-0.812-5.56-1.492-6.848c-0.259-0.488-0.072-1.094,0.416-1.352
		c0.491-0.26,1.095-0.071,1.352,0.416c0.787,1.488,1.725,4.047,1.725,7.783s-0.938,6.295-1.725,7.783
		C38.597,78.922,38.25,79.115,37.891,79.115z"/>
</g>
<g>
	<polygon fill="#000000" points="74.863,67.403 74.863,62.12 60.625,62.12 60.625,79.479 74.863,79.479 74.863,74.196 
		81.125,79.479 81.125,62.12 	"/>
</g>
<path fill="#000000" d="M51.6,10v30.834V48.4H90v-7.565V10H51.6z M53.6,46.4v-4.788l23.25-11.822L88,41.085V46.4H53.6z
	 M77.167,27.834L53.6,39.817V12H88v26.809L77.167,27.834z"/>
</svg>
