<?xml version="1.0" encoding="utf-8"?>
<!-- Generator: Adobe Illustrator 16.0.0, SVG Export Plug-In . SVG Version: 6.00 Build 0)  -->
<!DOCTYPE svg PUBLIC "-//W3C//DTD SVG 1.1//EN" "http://www.w3.org/Graphics/SVG/1.1/DTD/svg11.dtd">
<svg version="1.1" id="Layer_2" xmlns="http://www.w3.org/2000/svg" xmlns:xlink="http://www.w3.org/1999/xlink" x="0px" y="0px"
	 width="100px" height="100px" viewBox="0 0 100 100" enable-background="new 0 0 100 100" xml:space="preserve">
<g>
	<circle fill="#000000" cx="18.918" cy="18.647" r="3.876"/>
</g>
<g>
	<circle fill="#000000" cx="18.918" cy="28.02" r="3.876"/>
</g>
<g>
	<circle fill="#000000" cx="18.918" cy="37.392" r="3.876"/>
</g>
<path fill="#000000" d="M70.334,46.333V10H10v36.333h29.167V49H26.833c-0.553,0-1,0.448-1,1s0.447,1,1,1h26.668c0.553,0,1-0.448,1-1
	s-0.447-1-1-1H41.167v-2.666H70.334z M12,12h56.334v32.333H12V12z"/>
<path fill="#000000" d="M89.125,19.875H74.75c-0.553,0-1,0.448-1,1V50c0,0.552,0.447,1,1,1h14.375c0.553,0,1-0.448,1-1V20.875
	C90.125,20.323,89.678,19.875,89.125,19.875z M88.125,49H75.75V21.875h4.604c0.104,0.787,0.769,1.396,1.584,1.396
	s1.48-0.609,1.584-1.396h4.604V49z"/>
<path fill="#000000" d="M89.125,58.5h-4.466v-3.334H15.341V58.5h-4.466c-0.553,0-1,0.447-1,1v30.499c0,0.553,0.447,1,1,1h78.25
	c0.553,0,1-0.447,1-1V59.5C90.125,58.947,89.678,58.5,89.125,58.5z M70.866,69.812l3.884,2.251V57.166h7.909v26.499H51V57.166
	h15.982v14.896L70.866,69.812z M17.341,57.166H49v26.499H17.341V57.166z M11.875,60.5h3.466v25.165H49v3.21
	c0,0.044,0.02,0.082,0.025,0.124h-37.15V60.5z M88.125,88.999h-37.15C50.98,88.957,51,88.919,51,88.875v-3.21h33.659V60.5h3.466
	V88.999z"/>
</svg>
