<?xml version="1.0" encoding="utf-8"?>
<!-- Generator: Adobe Illustrator 16.0.0, SVG Export Plug-In . SVG Version: 6.00 Build 0)  -->
<!DOCTYPE svg PUBLIC "-//W3C//DTD SVG 1.1//EN" "http://www.w3.org/Graphics/SVG/1.1/DTD/svg11.dtd">
<svg version="1.1" id="Layer_2" xmlns="http://www.w3.org/2000/svg" xmlns:xlink="http://www.w3.org/1999/xlink" x="0px" y="0px"
	 width="100px" height="100px" viewBox="0 0 100 100" enable-background="new 0 0 100 100" xml:space="preserve">
<g>
	<path fill="#000000" d="M34.75,72.166c0,6.835-5.54,12.375-12.375,12.375S10,79.001,10,72.166"/>
</g>
<g>
	<path fill="#000000" d="M90,55.394c0,6.835-5.54,12.375-12.375,12.375S65.25,62.229,65.25,55.394"/>
</g>
<path fill="#000000" d="M90.695,51.394L78.563,18.717c-0.004-0.012-0.015-0.02-0.02-0.031c-0.027-0.068-0.072-0.125-0.115-0.186
	c-0.001-0.001-0.002-0.003-0.003-0.005v-3.828c0-0.254-0.121-0.494-0.325-0.644c-0.206-0.152-0.47-0.195-0.712-0.12L51,22.104
	v-4.317c1.862-0.451,3.25-2.118,3.25-4.119c0-2.347-1.902-4.25-4.25-4.25s-4.25,1.903-4.25,4.25c0,2.001,1.388,3.668,3.25,4.119
	v4.939l-26.862,8.348c-0.335,0.104-0.563,0.414-0.563,0.764v3.43c-0.002,0.002-0.003,0.004-0.004,0.007
	c-0.042,0.06-0.087,0.116-0.114,0.184c-0.005,0.012-0.016,0.02-0.02,0.031L9.305,68.166H9v2.209h26.75v-2.209h-0.305L23.61,36.292
	L49,28.401v58.931H35.75V89h28.5v-1.668H51V27.779l25.234-7.842l-11.68,31.457H64.25v2.209H91v-2.209H90.695z M88.563,51.394H78.425
	V24.092L88.563,51.394z M21.575,40.864v27.302H11.438L21.575,40.864z M23.175,68.166V40.864l10.138,27.302H23.175z M23.175,34.751
	v-2.324L49,24.401v2.324L23.175,34.751z M51,23.779l25.825-8.026v2.324L51,26.104V23.779z M76.825,24.092v27.302H66.688
	L76.825,24.092z"/>
</svg>
