<?xml version="1.0" encoding="utf-8"?>
<!-- Generator: Adobe Illustrator 16.0.0, SVG Export Plug-In . SVG Version: 6.00 Build 0)  -->
<!DOCTYPE svg PUBLIC "-//W3C//DTD SVG 1.1//EN" "http://www.w3.org/Graphics/SVG/1.1/DTD/svg11.dtd">
<svg version="1.1" id="Layer_2" xmlns="http://www.w3.org/2000/svg" xmlns:xlink="http://www.w3.org/1999/xlink" x="0px" y="0px"
	 width="100px" height="100px" viewBox="0 0 100 100" enable-background="new 0 0 100 100" xml:space="preserve">
<path fill="#000000" d="M78.977,77.643c2.67-0.94,4.593-3.481,4.593-6.469c0-3.783-3.079-6.861-6.863-6.861
	s-6.863,3.078-6.863,6.861c0,2.987,1.923,5.528,4.593,6.469c-5.068,0.704-9.254,3.713-11.082,7.754
	c-1.828-4.041-6.014-7.05-11.083-7.754c2.67-0.94,4.593-3.481,4.593-6.469c0-3.783-3.079-6.861-6.863-6.861
	c-3.784,0-6.862,3.078-6.862,6.861c0,2.987,1.922,5.528,4.592,6.469c-5.069,0.704-9.254,3.713-11.083,7.754
	c-1.829-4.041-6.014-7.05-11.083-7.754c2.67-0.94,4.592-3.481,4.592-6.469c0-3.783-3.079-6.861-6.862-6.861
	s-6.862,3.078-6.862,6.861c0,2.987,1.922,5.528,4.592,6.469c-6.836,0.949-12.083,6.094-12.083,12.295h2
	c0-5.771,5.542-10.467,12.353-10.467s12.353,4.695,12.353,10.467h2c0-5.771,5.542-10.467,12.353-10.467
	c6.812,0,12.354,4.695,12.354,10.467h2c0-5.771,5.541-10.467,12.353-10.467s12.353,4.695,12.353,10.467h2
	C91.059,83.736,85.813,78.592,78.977,77.643z M18.432,71.174c0-2.681,2.181-4.861,4.862-4.861s4.862,2.181,4.862,4.861
	s-2.181,4.862-4.862,4.862S18.432,73.854,18.432,71.174z M45.138,71.174c0-2.681,2.181-4.861,4.862-4.861
	c2.682,0,4.863,2.181,4.863,4.861S52.682,76.036,50,76.036C47.319,76.036,45.138,73.854,45.138,71.174z M71.843,71.174
	c0-2.681,2.182-4.861,4.863-4.861s4.863,2.181,4.863,4.861s-2.182,4.862-4.863,4.862S71.843,73.854,71.843,71.174z"/>
<path fill="#000000" d="M78.977,22.017c2.67-0.94,4.593-3.481,4.593-6.468c0-3.783-3.079-6.861-6.863-6.861
	s-6.863,3.078-6.863,6.861c0,2.987,1.923,5.528,4.593,6.468c-5.068,0.705-9.254,3.713-11.082,7.755
	c-1.828-4.042-6.014-7.05-11.083-7.755c2.67-0.94,4.593-3.481,4.593-6.468c0-3.783-3.079-6.861-6.863-6.861
	c-3.784,0-6.862,3.078-6.862,6.861c0,2.987,1.922,5.528,4.592,6.468c-5.069,0.705-9.254,3.713-11.083,7.755
	c-1.829-4.042-6.014-7.05-11.083-7.755c2.67-0.94,4.592-3.481,4.592-6.468c0-3.783-3.079-6.861-6.862-6.861
	s-6.862,3.078-6.862,6.861c0,2.987,1.922,5.528,4.592,6.468c-6.836,0.95-12.083,6.094-12.083,12.295h2
	c0-5.771,5.542-10.467,12.353-10.467s12.353,4.695,12.353,10.467h2c0-5.771,5.542-10.467,12.353-10.467
	c6.812,0,12.354,4.695,12.354,10.467h2c0-5.771,5.541-10.467,12.353-10.467s12.353,4.695,12.353,10.467h2
	C91.059,28.111,85.813,22.967,78.977,22.017z M18.432,15.549c0-2.681,2.181-4.861,4.862-4.861s4.862,2.181,4.862,4.861
	c0,2.681-2.181,4.862-4.862,4.862S18.432,18.23,18.432,15.549z M45.138,15.549c0-2.681,2.181-4.861,4.862-4.861
	c2.682,0,4.863,2.181,4.863,4.861c0,2.681-2.182,4.862-4.863,4.862C47.319,20.411,45.138,18.23,45.138,15.549z M71.843,15.549
	c0-2.681,2.182-4.861,4.863-4.861s4.863,2.181,4.863,4.861c0,2.681-2.182,4.862-4.863,4.862S71.843,18.23,71.843,15.549z"/>
<path fill="#000000" d="M78.977,50.017c2.67-0.94,4.593-3.481,4.593-6.468c0-3.783-3.079-6.861-6.863-6.861
	s-6.863,3.078-6.863,6.861c0,2.987,1.923,5.528,4.593,6.468c-5.068,0.705-9.254,3.713-11.082,7.754
	c-1.828-4.041-6.014-7.05-11.083-7.754c2.67-0.94,4.593-3.481,4.593-6.468c0-3.783-3.079-6.861-6.863-6.861
	c-3.784,0-6.862,3.078-6.862,6.861c0,2.987,1.922,5.528,4.592,6.468c-5.069,0.705-9.254,3.713-11.083,7.754
	c-1.829-4.041-6.014-7.05-11.083-7.754c2.67-0.94,4.592-3.481,4.592-6.468c0-3.783-3.079-6.861-6.862-6.861
	s-6.862,3.078-6.862,6.861c0,2.987,1.922,5.528,4.592,6.468c-6.836,0.95-12.083,6.094-12.083,12.295h2
	c0-5.771,5.542-10.467,12.353-10.467s12.353,4.695,12.353,10.467h2c0-5.771,5.542-10.467,12.353-10.467
	c6.812,0,12.354,4.695,12.354,10.467h2c0-5.771,5.541-10.467,12.353-10.467s12.353,4.695,12.353,10.467h2
	C91.059,56.111,85.813,50.967,78.977,50.017z M18.432,43.549c0-2.681,2.181-4.861,4.862-4.861s4.862,2.181,4.862,4.861
	c0,2.681-2.181,4.862-4.862,4.862S18.432,46.23,18.432,43.549z M45.138,43.549c0-2.681,2.181-4.861,4.862-4.861
	c2.682,0,4.863,2.181,4.863,4.861c0,2.681-2.182,4.862-4.863,4.862C47.319,48.411,45.138,46.23,45.138,43.549z M71.843,43.549
	c0-2.681,2.182-4.861,4.863-4.861s4.863,2.181,4.863,4.861c0,2.681-2.182,4.862-4.863,4.862S71.843,46.23,71.843,43.549z"/>
</svg>
